<?xml version="1.0" standalone="no"?><!DOCTYPE svg PUBLIC "-//W3C//DTD SVG 1.1//EN" "http://www.w3.org/Graphics/SVG/1.1/DTD/svg11.dtd"><svg t="1521536258912" class="icon" style="" viewBox="0 0 1024 1024" version="1.1" xmlns="http://www.w3.org/2000/svg" p-id="4475" xmlns:xlink="http://www.w3.org/1999/xlink" width="32" height="32"><defs><style type="text/css"></style></defs><path d="M506.661923 365.776707c-4.241604 21.373797-10.213619 42.578748-17.940604 63.615876l-36.58422 97.713462 112.913653 0-34.758642-92.254124C519.689634 406.843008 511.816317 383.832945 506.661923 365.776707z" p-id="4476" fill="#76C5F0"></path><path d="M511.888971 131.844817c-201.850218 0-365.489158 163.638941-365.489158 365.490182 0 201.850218 163.638941 365.489158 365.489158 365.489158 201.861474 0 365.489158-163.638941 365.489158-365.489158C877.37813 295.483758 713.750445 131.844817 511.888971 131.844817zM617.539196 663.869896l-38.851866-100.861152L439.423543 563.008744l-36.58422 100.861152-46.798862 0 127.904065-333.071841 47.481408 0 136.312572 333.071841L617.539196 663.869896z" p-id="4477" fill="#76C5F0"></path></svg>