<?xml version="1.0" standalone="no"?><!DOCTYPE svg PUBLIC "-//W3C//DTD SVG 1.1//EN" "http://www.w3.org/Graphics/SVG/1.1/DTD/svg11.dtd"><svg t="1535102507154" class="icon" style="" viewBox="0 0 1024 1024" version="1.1" xmlns="http://www.w3.org/2000/svg" p-id="5171" xmlns:xlink="http://www.w3.org/1999/xlink" width="128" height="128"><defs><style type="text/css"></style></defs><path d="M157.543 532.58c-1.87 0-3.703 0.257-5.535 0.662C39.708 560.077 30.945 656.61 30.833 719.634v1.98c0 5.462 0.074 10.632 0.15 15.513l0.07 112.735c0 64.71 49.641 106.509 126.489 106.509h79.816c13.015 0 23.612-10.563 23.612-23.611 0-13.054-10.597-23.65-23.612-23.65h-79.816c-23.834 0-79.193-5.755-79.193-59.247l-0.146-113.327c-0.915-71.272 4.766-136.827 82.16-156.661h73.402c13.05 0 23.608-10.595 23.608-23.613 0-13.048-10.557-23.68-23.608-23.68h-76.222v-0.001z" fill="#545888" p-id="5172"></path><path d="M215.214 349.298c0-61.998 50.485-112.446 112.484-112.446 62.067 0 112.52 50.488 112.52 112.446 0 62.071-50.453 112.52-112.52 112.52-62 0-112.484-50.449-112.484-112.52M429.84 67.138c-62.254 0-112.925 50.631-112.925 112.888v10.154c-83.04 5.535-148.963 74.681-148.963 159.118 0 88.142 71.676 159.78 159.742 159.78 88.141 0 159.814-71.675 159.814-159.78 0-75.49-52.754-138.77-123.295-155.34v-13.932c0-36.19 29.434-65.629 65.625-65.629h442.565c36.187 0 65.629 29.475 65.629 65.63V714.24c0 36.159-29.447 65.629-65.63 65.629h-247.95l0.07-42.822c0.55-42.966 1.244-111.899-41.467-159.26l120.438-254.486c5.537-11.84 0.518-25.919-11.294-31.49-11.762-5.538-25.922-0.513-31.49 11.253l-116 245.243c-11.917-6.231-25.59-11.363-41.285-15.11a23.656 23.656 0 0 0-5.498-0.655H421.63c-13.017 0-23.61 10.59-23.61 23.612 0 13.086 10.593 23.681 23.61 23.681h73.396c77.51 19.836 83.19 85.389 82.236 156.63l-0.112 66.76c0 0.106-0.031 0.182-0.031 0.256 0 0.111 0.031 0.149 0.031 0.255l-0.031 46.125c0 53.486-55.434 59.247-79.228 59.247h-79.819c-13.011 0-23.605 10.596-23.605 23.644 0 13.054 10.597 23.612 23.605 23.612h79.82c76.81 0 126.486-41.793 126.486-106.504v-22.733h248.058c62.225 0 112.894-50.67 112.894-112.888V180.026c0-62.257-50.67-112.889-112.894-112.889H429.84z" fill="#545888" p-id="5173"></path></svg>