<?xml version="1.0" standalone="no"?><!DOCTYPE svg PUBLIC "-//W3C//DTD SVG 1.1//EN" "http://www.w3.org/Graphics/SVG/1.1/DTD/svg11.dtd"><svg t="1535074471168" class="icon" style="" viewBox="0 0 1024 1024" version="1.1" xmlns="http://www.w3.org/2000/svg" p-id="4703" xmlns:xlink="http://www.w3.org/1999/xlink" width="128" height="128"><defs><style type="text/css"></style></defs><path d="M865.756441 667.199735c-28.940123-16.71059-61.819974-25.544793-95.083565-25.544793-32.857339 0-65.347311 8.540514-93.959975 24.701588-20.801768 11.749602-38.921451 27.079752-53.967122 45.644573l-198.915375-114.840538c20.915355-41.703821 25.780153-89.055269 13.617136-134.458341-3.331885-12.423961-7.882528-24.454972-13.573133-35.887348l198.871373-114.815979c15.041578 18.561751 33.159214 33.888831 53.967122 45.644573 28.612665 16.159028 61.102636 24.701588 93.959975 24.701588 33.261545 0 66.141396-8.834202 95.083565-25.544793 44.058448-25.434276 75.575256-66.506716 88.744183-115.647927 13.168927-49.14428 6.40999-100.474342-19.029402-144.527674-17.024745-29.489638-41.624003-53.887304-71.136154-70.555939-28.612665-16.161075-61.102636-24.703635-93.955882-24.703635-33.261545 0-66.141396 8.834202-95.083565 25.544793-40.827871 23.573905-71.321372 61.300135-85.863576 106.231463-13.46671 41.609677-12.300141 86.215594 3.14769 126.632095l-204.067722 117.818359c-11.818163-11.841699-25.178449-22.093181-39.808658-30.53955-28.946262-16.71059-61.826114-25.542746-95.083565-25.542746-32.861432 0-65.351404 8.54256-93.957929 24.701588-29.514197 16.670681-54.111408 41.068348-71.134107 70.557986-25.438369 44.056402-32.196283 95.383394-19.029402 144.525628 13.168927 49.140187 44.683688 90.210581 88.742137 115.649973 28.946262 16.71059 61.826114 25.542746 95.087659 25.542746 32.855292 0 65.345264-8.540514 93.955882-24.699542 15.081487-8.518001 28.89612-19.067264 41.164538-31.416524l204.107631 117.837802c-14.4542 37.530778-16.550954 77.861322-6.001691 117.228935 13.166881 49.140187 44.683688 90.212628 88.742137 115.649973 28.938076 16.71059 61.815881 25.542746 95.081519 25.546839l0.008186 0c32.855292 0 65.343217-8.54256 93.951789-24.701588 29.512151-16.670681 54.109362-41.068348 71.134107-70.557986 25.438369-44.056402 32.19833-95.383394 19.029402-144.525628C941.331697 733.708498 909.816936 692.636057 865.756441 667.199735zM661.501454 769.199827c22.426779-38.841633 64.258513-62.97324 109.172445-62.97324 21.940708 0 43.656289 5.842055 62.797231 16.894785 29.120224 16.812921 49.951669 43.958164 58.655911 76.43995 8.704243 32.483832 4.237511 66.407456-12.577456 95.52768-22.424732 38.841633-64.256466 62.971194-109.170398 62.971194-21.942755 0-43.658336-5.842055-62.795185-16.892739-29.124318-16.817014-49.953715-43.964304-58.657958-76.441996C640.223848 832.245721 644.69058 798.320051 661.501454 769.199827zM362.495476 574.941518c-22.424732 38.84368-64.25442 62.97324-109.172445 62.97324-21.938662 0-43.654242-5.842055-62.797231-16.892739-29.122271-16.814967-49.951669-43.962258-58.653865-76.441996-8.704243-32.477692-4.237511-66.403363 12.57541-95.525634 22.426779-38.84368 64.258513-62.97324 109.172445-62.97324 21.940708 0 43.656289 5.842055 62.797231 16.894785 29.120224 16.810874 49.951669 43.956118 58.655911 76.437903C383.773082 511.896646 379.30635 545.82334 362.495476 574.941518zM770.379187 65.938782c44.911886 0 86.745666 24.127514 109.170398 62.971194 16.814967 29.118178 21.281699 63.044872 12.577456 95.52768-8.704243 32.479739-29.535687 59.628052-58.655911 76.43995-19.138896 11.05273-40.854477 16.892739-62.797231 16.892739-44.913932 0-86.745666-24.127514-109.172445-62.971194-16.782222-29.068036-21.227464-62.989613-12.514012-95.509261s29.52443-59.673078 58.59656-76.458369C726.722898 71.780837 748.438479 65.938782 770.379187 65.938782z" p-id="4704" fill="#5165bb"></path></svg>