<?xml version="1.0" standalone="no"?><!DOCTYPE svg PUBLIC "-//W3C//DTD SVG 1.1//EN" "http://www.w3.org/Graphics/SVG/1.1/DTD/svg11.dtd"><svg t="1521535900285" class="icon" style="" viewBox="0 0 1024 1024" version="1.1" xmlns="http://www.w3.org/2000/svg" p-id="4054" xmlns:xlink="http://www.w3.org/1999/xlink" width="32" height="32"><defs><style type="text/css"></style></defs><path d="M511.889995 131.844817c-201.851241 0-365.490182 163.638941-365.490182 365.490182 0 201.850218 163.638941 365.489158 365.490182 365.489158 201.861474 0 365.488135-163.638941 365.488135-365.489158C877.37813 295.483758 713.751469 131.844817 511.889995 131.844817zM661.376611 679.785378c-23.923876-8.650007-47.78533-22.297842-71.562872-40.900525-24.690332 13.773701-51.954279 20.659529-81.787748 20.659529-30.139437 0-57.476039-7.265474-82.008782-21.793352-24.543999-14.569834-43.439348-35.020608-56.688093-61.34823-13.258978-26.370601-19.882839-56.05876-19.882839-89.063455 0-32.878828 6.665817-62.776765 19.998473-89.734744 13.3214-26.957978 32.290427-47.491641 56.908104-61.559031 24.617677-14.109346 52.142567-21.162995 82.58695-21.162995 30.747281 0 58.461483 7.306406 83.151815 21.961174 24.681122 14.612813 43.502793 35.062564 56.45785 61.307298 12.942777 26.28669 19.421328 55.93187 19.421328 88.978521 0 27.378557-4.167926 52.026934-12.492522 73.946153-8.335852 21.877263-20.901029 40.900525-37.718043 57.108672 20.448728 14.109346 39.303144 24.396643 56.57246 30.905894L661.376611 679.785378z" p-id="4055" fill="#FCD327"></path><path d="M608.783789 416.459017c-9.16473-20.156062-22.570042-35.775808-40.205701-46.90324-17.646915-11.128455-37.4571-16.712637-59.408041-16.712637-32.867572 0-60.130496 11.253298-81.787748 33.718963-21.667485 22.50762-32.489972 56.099692-32.489972 100.778264 0 43.333948 10.707876 76.549443 32.144094 99.728352 21.425985 23.179932 48.803519 34.768875 82.133625 34.768875 15.747659 0 30.591739-2.937912 44.522006-8.859785-13.784958-8.943696-28.323069-15.284101-43.618427-19.105127l10.677177-31.997762c25.445532 7.096628 46.420239 17.71957 62.933331 31.78696 25.898857-23.642466 38.851866-59.123562 38.851866-106.531292C622.534977 460.171588 617.948519 436.615079 608.783789 416.459017z" p-id="4056" fill="#FCD327"></path></svg>