<?xml version="1.0" standalone="no"?><!DOCTYPE svg PUBLIC "-//W3C//DTD SVG 1.1//EN" "http://www.w3.org/Graphics/SVG/1.1/DTD/svg11.dtd"><svg t="1521516236586" class="icon" style="" viewBox="0 0 1024 1024" version="1.1" xmlns="http://www.w3.org/2000/svg" p-id="1802" xmlns:xlink="http://www.w3.org/1999/xlink" width="128" height="128"><defs><style type="text/css"></style></defs><path d="M205.763956 62.836364l-176.872727 179.2 55.854546 55.854545 76.8-74.472727 37.236363 37.236363-76.8 74.472728L161.545775 372.363636l114.036363-114.036363 37.236364 37.236363-114.036364 114.036364 46.545455 46.545455L559.509411 768l60.509091 60.509091 114.036363-114.036364 37.236364 37.236364-114.036364 114.036364 37.236364 37.236363 93.090909-93.090909 37.236364 37.236364-93.090909 93.090909 55.854545 55.854545 179.2-176.872727c55.854545-51.2 55.854545-83.781818 0-134.981818l-165.236363-165.236364-300.218182-302.545454-158.254546-155.927273C289.545775 11.636364 261.618502 11.636364 205.763956 62.836364z" fill="#92C4FF" p-id="1803"></path><path d="M787.582138 1017.018182c-4.654545 0-9.309091-2.327273-11.636363-4.654546l-55.854546-55.854545c-6.981818-6.981818-6.981818-18.618182 0-23.272727l81.454546-81.454546-13.963637-13.963636-81.454545 81.454545c-6.981818 6.981818-18.618182 6.981818-23.272728 0l-37.236363-37.236363c-2.327273-2.327273-4.654545-6.981818-4.654546-11.636364s2.327273-9.309091 4.654546-11.636364l102.4-102.4-13.963637-13.963636-102.4 102.4c-6.981818 6.981818-18.618182 6.981818-23.272727 0l-60.509091-60.509091L231.363956 470.109091l-46.545454-46.545455c-6.981818-6.981818-6.981818-18.618182 0-23.272727l102.4-102.4-13.963637-13.963636-102.4 102.4c-6.981818 6.981818-16.290909 6.981818-23.272727 0L108.018502 349.090909c-2.327273-2.327273-4.654545-6.981818-4.654546-11.636364s2.327273-9.309091 4.654546-11.636363l65.163636-62.836364-13.963636-13.963636-62.836364 62.836363c-6.981818 6.981818-18.618182 6.981818-23.272727 0L17.254865 256c-6.981818-6.981818-6.981818-18.618182 0-23.272727l176.872728-179.2C226.709411 23.272727 249.982138 9.309091 275.582138 9.309091c13.963636 0 25.6 4.654545 39.563637 11.636364 11.636364 6.981818 23.272727 16.290909 39.563636 32.581818L512.963956 207.127273l300.218182 302.545454L978.418502 674.909091c32.581818 30.254545 46.545455 55.854545 46.545454 79.127273 0 25.6-13.963636 48.872727-46.545454 79.127272l-179.2 176.872728c-2.327273 4.654545-6.981818 6.981818-11.636364 6.981818z m-30.254545-72.145455l30.254545 30.254546 165.236364-165.236364c25.6-23.272727 34.909091-39.563636 34.909091-55.854545 0-13.963636-11.636364-32.581818-34.909091-55.854546l-165.236364-165.236363L487.363956 232.727273l-158.254545-155.927273c-23.272727-23.272727-39.563636-34.909091-55.854546-34.909091-13.963636 0-32.581818 11.636364-58.181818 34.909091l-165.236363 167.563636 30.254545 30.254546L147.582138 209.454545c6.981818-6.981818 18.618182-6.981818 23.272727 0L210.418502 249.018182c2.327273 2.327273 4.654545 6.981818 4.654545 11.636363s-2.327273 9.309091-4.654545 11.636364l-65.163637 62.836364 13.963637 13.963636 102.4-102.4c2.327273-2.327273 6.981818-4.654545 11.636363-4.654545s9.309091 2.327273 11.636364 4.654545l37.236364 37.236364c6.981818 6.981818 6.981818 18.618182 0 23.272727l-102.4 102.4 32.581818 32.581818 314.181818 311.854546 48.872727 48.872727 102.4-102.4c6.981818-6.981818 18.618182-6.981818 23.272728 0l37.236363 37.236364c2.327273 2.327273 4.654545 6.981818 4.654546 11.636363s-2.327273 9.309091-4.654546 11.636364L675.873047 863.418182l13.963637 13.963636 81.454545-81.454545c6.981818-6.981818 18.618182-6.981818 23.272727 0l37.236364 37.236363c6.981818 6.981818 6.981818 18.618182 0 23.272728l-74.472727 88.436363z" fill="#6591FD" p-id="1804"></path><path d="M957.473047 141.963636l-81.454545-81.454545c-48.872727-46.545455-74.472727-46.545455-121.018182 0l-93.090909 93.090909L629.327593 188.509091 226.709411 579.490909l-32.581818 34.909091L163.873047 644.654545 17.254865 1000.727273l349.09091-155.927273L396.60032 814.545455l32.581818-34.909091 402.618182-390.981819 32.581818-34.90909 93.090909-93.09091c48.872727-44.218182 48.872727-72.145455 0-118.690909z" fill="#92C4FF" p-id="1805"></path><path d="M969.109411 130.327273l-81.454546-81.454546C859.727593 20.945455 838.782138 11.636364 815.509411 11.636364c-16.290909 0-34.909091 4.654545-69.818182 39.563636l-93.090909 93.090909-32.581818 32.581818L217.40032 567.854545l-23.272727 25.6-16.290909 16.29091-23.272728 23.272727-4.654545 4.654545L0.963956 996.072727c-2.327273 4.654545 0 11.636364 2.327273 16.290909 2.327273 2.327273 6.981818 4.654545 11.636364 4.654546 2.327273 0 4.654545 0 6.981818-2.327273l349.090909-155.927273c2.327273 0 2.327273-2.327273 4.654545-2.327272l30.254546-30.254546 32.581818-34.909091L838.782138 400.290909l16.290909-16.290909 37.236364-37.236364 72.145454-72.145454s2.327273 0 2.327273-2.327273c27.927273-27.927273 41.890909-48.872727 41.890909-72.145454 2.327273-20.945455-11.636364-41.890909-39.563636-69.818182zM175.509411 653.963636l179.2 179.2-311.854546 139.636364 132.654546-318.836364z m644.654545-274.618181L419.873047 770.327273l-25.6 25.6-179.2-179.2 25.6-25.6L638.636684 197.818182l16.290909-16.290909 179.2 179.2-13.963637 18.618182z m130.327273-130.327273l-2.327273 2.327273-74.472727 74.472727-179.2-179.2L768.963956 72.145455c20.945455-20.945455 34.909091-30.254545 48.872728-30.254546 11.636364 0 27.927273 9.309091 51.2 30.254546l81.454545 81.454545c20.945455 20.945455 32.581818 37.236364 32.581818 48.872727-2.327273 11.636364-11.636364 25.6-32.581818 46.545455z" fill="#6591FD" p-id="1806"></path><path d="M647.945775 237.381818c-6.981818-6.981818-16.290909-6.981818-20.945455-2.327273L489.691229 372.363636c-4.654545 4.654545-4.654545 13.963636 0 18.618182l2.327273 2.327273c4.654545 4.654545 13.963636 4.654545 18.618182 0l137.309091-137.309091c4.654545-4.654545 4.654545-11.636364 0-18.618182z" fill="#FCFCFF" p-id="1807"></path><path d="M468.745775 414.254545m-13.963637 0a13.963636 13.963636 0 1 0 27.927273 0 13.963636 13.963636 0 1 0-27.927273 0Z" fill="#FCFCFF" p-id="1808"></path></svg>