<?xml version="1.0" standalone="no"?><!DOCTYPE svg PUBLIC "-//W3C//DTD SVG 1.1//EN" "http://www.w3.org/Graphics/SVG/1.1/DTD/svg11.dtd"><svg t="1533026526243" class="icon" style="" viewBox="0 0 1024 1024" version="1.1" xmlns="http://www.w3.org/2000/svg" p-id="1200" xmlns:xlink="http://www.w3.org/1999/xlink" width="128" height="128"><defs><style type="text/css"></style></defs><path d="M512 0.0125c-282.6875 0-512 229.0625-512 511.75 0 282.95 229.3125 512.2625 512 512.2625 282.875 0 512-229.3125 512-512.2625C1024 229.0625 794.875 0.0125 512 0.0125zM512 852.8125c-32.25 0-58.3625-26.1125-58.3625-58.3625s26.175-58.3625 58.3625-58.3625c32.1875 0 58.3625 26.1125 58.3625 58.3625S544.25 852.8125 512 852.8125zM615.8625 537.2875c-29.825 19.5875-39.875 42.1125-39.875 66.05l0 100.675-115.5875 0-12.4125 0 0-143.3c0-39.1 17.4125-65.6625 54.725-89.6l68.475-43.4625c40.7-27.9625 37.3125-84.2875 11.7125-109.25-22.4-21.825-66.4375-34.4375-106.5625-26.3-73.6 14.85-92.35 69.1875-92.35 120.7l0 35.2-87.675 0c0-128 10.75-146.8125 61.375-202.175 56.3875-61.8875 136.125-78.2125 209.5375-63.0375s161.025 86.85 161.025 191.1C728.25 478.15 645.6875 517.775 615.8625 537.2875z" p-id="1201" fill="#6e96d2"></path></svg>