<?xml version="1.0" standalone="no"?><!DOCTYPE svg PUBLIC "-//W3C//DTD SVG 1.1//EN" "http://www.w3.org/Graphics/SVG/1.1/DTD/svg11.dtd"><svg t="1533027294555" class="icon" style="" viewBox="0 0 1024 1024" version="1.1" xmlns="http://www.w3.org/2000/svg" p-id="12371" xmlns:xlink="http://www.w3.org/1999/xlink" width="128" height="128"><defs><style type="text/css"></style></defs><path d="M512 1024C228.266667 1024 0 795.733333 0 512S228.266667 0 512 0s512 228.266667 512 512-228.266667 512-512 512z m181.333333-443.733333c-8.533333-8.533333-21.333333-8.533333-29.866666 0L541.866667 704c-2.133333 2.133333-6.4 4.266667-8.533334 6.4V277.333333c0-12.8-8.533333-21.333333-21.333333-21.333333s-21.333333 8.533333-21.333333 21.333333v433.066667c-4.266667-2.133333-6.4-4.266667-10.666667-6.4l-121.6-123.733333c-8.533333-8.533333-21.333333-8.533333-29.866667 0-8.533333 8.533333-8.533333 23.466667 0 32l153.6 155.733333c17.066667 17.066667 44.8 17.066667 61.866667 0l153.6-155.733333c4.266667-8.533333 4.266667-23.466667-4.266667-32z" fill="#78b3c6" p-id="12372"></path></svg>