<?xml version="1.0" standalone="no"?><!DOCTYPE svg PUBLIC "-//W3C//DTD SVG 1.1//EN" "http://www.w3.org/Graphics/SVG/1.1/DTD/svg11.dtd"><svg t="1522382328582" class="icon" style="" viewBox="0 0 1024 1024" version="1.1" xmlns="http://www.w3.org/2000/svg" p-id="2104" xmlns:xlink="http://www.w3.org/1999/xlink" width="128" height="128"><defs><style type="text/css"></style></defs><path d="M696.011944 106.86489c-84.656075 0-148.300604 60.137659-185.566346 108.076484-37.296441-47.938825-100.94097-108.076484-185.597045-108.076484-108.321054 0-207.187783 74.622558-246.069325 185.688119-0.243547 0.671289-0.457418 1.341554-0.64059 2.043542-19.730367 71.817676-18.388812 131.741463 5.641487 209.658044 18.602683 44.7369 48.091298 87.461981 87.644129 127.014812 2.866281 2.866281 289.892413 285.866726 339.782683 285.866726 50.866505 0 334.87286-282.572704 337.739141-285.440008 73.402777-73.402777 110.608144-152.660912 110.608144-235.579413C959.555246 236.624209 841.323471 106.86489 696.011944 106.86489z" p-id="2105" fill="#d81e06"></path></svg>